<svg xmlns="http://www.w3.org/2000/svg" width="1200" height="380" viewBox="0 0 1200 380" role="img" aria-labelledby="title description">
<title id="title">IGuanggg Star Atlas</title>
<desc id="description">171 starred repositories grouped across 17 languages</desc>
<style>
  .title { fill: #f0f6fc; font: 700 46px -apple-system, BlinkMacSystemFont, "Segoe UI", sans-serif; letter-spacing: -1.5px; }
  .subtitle { fill: #8b949e; font: 400 18px -apple-system, BlinkMacSystemFont, "Segoe UI", sans-serif; }
  .metric { fill: #f0f6fc; font: 700 32px -apple-system, BlinkMacSystemFont, "Segoe UI", sans-serif; }
  .metric-label { fill: #8b949e; font: 500 13px -apple-system, BlinkMacSystemFont, "Segoe UI", sans-serif; letter-spacing: 1px; }
  .label { fill: #c9d1d9; font: 600 15px -apple-system, BlinkMacSystemFont, "Segoe UI", sans-serif; }
  .value { fill: #8b949e; font: 600 14px ui-monospace, SFMono-Regular, Consolas, monospace; }
</style>
<rect width="1200" height="380" rx="28" fill="#0d1117"/>
<rect x="28" y="28" width="1144" height="324" rx="22" fill="#161b22" stroke="#30363d"/>
<text x="72" y="105" class="title">STAR ATLAS</text>
<text x="72" y="143" class="subtitle">A living shelf of open-source tools, ideas, and experiments.</text>
<g transform="translate(72 205)">
  <text class="metric">171</text>
  <text y="25" class="metric-label">STARRED REPOS</text>
</g>
<g transform="translate(245 205)">
  <text class="metric">17</text>
  <text y="25" class="metric-label">LANGUAGES</text>
</g>
<text x="72" y="310" class="subtitle">Synced 2026-07-25, 01:51 Asia/Shanghai</text>
<text x="650" y="58" class="metric-label">TOP LANGUAGES</text>
<g transform="translate(650 88)">
  <rect width="12" height="12" rx="4" fill="#58a6ff"/>
  <text x="24" y="11" class="label">Python</text>
  <text x="215" y="11" text-anchor="end" class="value">59</text>
</g><g transform="translate(895 88)">
  <rect width="12" height="12" rx="4" fill="#2f81f7"/>
  <text x="24" y="11" class="label">TypeScript</text>
  <text x="215" y="11" text-anchor="end" class="value">23</text>
</g><g transform="translate(650 138)">
  <rect width="12" height="12" rx="4" fill="#1f6feb"/>
  <text x="24" y="11" class="label">miscellaneous</text>
  <text x="215" y="11" text-anchor="end" class="value">17</text>
</g><g transform="translate(895 138)">
  <rect width="12" height="12" rx="4" fill="#1158c7"/>
  <text x="24" y="11" class="label">Shell</text>
  <text x="215" y="11" text-anchor="end" class="value">16</text>
</g><g transform="translate(650 188)">
  <rect width="12" height="12" rx="4" fill="#79c0ff"/>
  <text x="24" y="11" class="label">JavaScript</text>
  <text x="215" y="11" text-anchor="end" class="value">15</text>
</g><g transform="translate(895 188)">
  <rect width="12" height="12" rx="4" fill="#388bfd"/>
  <text x="24" y="11" class="label">C#</text>
  <text x="215" y="11" text-anchor="end" class="value">10</text>
</g><g transform="translate(650 238)">
  <rect width="12" height="12" rx="4" fill="#0d419d"/>
  <text x="24" y="11" class="label">Go</text>
  <text x="215" y="11" text-anchor="end" class="value">10</text>
</g><g transform="translate(895 238)">
  <rect width="12" height="12" rx="4" fill="#a5d6ff"/>
  <text x="24" y="11" class="label">HTML</text>
  <text x="215" y="11" text-anchor="end" class="value">6</text>
</g>
<rect x="650.00" y="303" width="177.76" height="18" rx="9" fill="#58a6ff"/><rect x="827.76" y="303" width="69.29" height="18" rx="9" fill="#2f81f7"/><rect x="897.05" y="303" width="51.22" height="18" rx="9" fill="#1f6feb"/><rect x="948.27" y="303" width="48.21" height="18" rx="9" fill="#1158c7"/><rect x="996.47" y="303" width="45.19" height="18" rx="9" fill="#79c0ff"/><rect x="1041.67" y="303" width="30.13" height="18" rx="9" fill="#388bfd"/><rect x="1071.79" y="303" width="30.13" height="18" rx="9" fill="#0d419d"/><rect x="1101.92" y="303" width="18.08" height="18" rx="9" fill="#a5d6ff"/>
</svg>
